<svg width="24" height="24" viewBox="0 0 24 24" fill="none" xmlns="http://www.w3.org/2000/svg">
<g clip-path="url(#clip0_1248_775)">
<path d="M12 0.875C18.1442 0.875 23.1249 5.85581 23.125 12C23.125 18.1443 18.1443 23.125 12 23.125C5.85581 23.1249 0.875 18.1442 0.875 12C0.875124 5.85589 5.85589 0.875124 12 0.875Z" fill="#1769FF" stroke="#124DBA"/>
<path fill-rule="evenodd" clip-rule="evenodd" d="M8.76957 7.59961C9.1527 7.59961 9.49771 7.63237 9.81224 7.69953C10.1275 7.7641 10.3938 7.87416 10.6198 8.02356C10.8432 8.17344 11.0154 8.37305 11.1428 8.62191C11.2647 8.86841 11.3256 9.17783 11.3256 9.5443C11.3256 9.94091 11.2347 10.2697 11.0512 10.5345C10.866 10.7987 10.597 11.0134 10.2362 11.1833C10.7285 11.3228 11.0917 11.5672 11.3355 11.9141C11.579 12.2636 11.6961 12.6824 11.6961 13.1756C11.6961 13.5746 11.6171 13.916 11.4631 14.2055C11.3057 14.4974 11.0924 14.734 10.8312 14.9164C10.5673 15.1007 10.2626 15.2355 9.92213 15.3227C9.58408 15.4094 9.23645 15.4549 8.87704 15.4549L5 15.4549L5 7.60033L8.77005 7.60057L8.76959 7.59961L8.76957 7.59961ZM13.483 8.2333L16.7252 8.2333L16.7252 9.00911L13.483 9.00887L13.483 8.23306L13.483 8.2333ZM14.2034 14.0883C14.4424 14.3171 14.785 14.4322 15.2322 14.4322C15.552 14.4322 15.8317 14.352 16.0623 14.1925C16.2929 14.0329 16.433 13.864 16.4865 13.6891L17.8873 13.6893C17.6613 14.3746 17.3211 14.8615 16.8543 15.1558C16.3943 15.4502 15.8315 15.5996 15.1785 15.5996C14.7209 15.5996 14.3126 15.5268 13.9443 15.3847C13.5763 15.2402 13.2692 15.0385 13.0101 14.7734C12.7589 14.5092 12.561 14.1951 12.4211 13.8258C12.2839 13.4596 12.2133 13.0526 12.2133 12.6138C12.2133 12.1875 12.2848 11.7908 12.4261 11.4242C12.5708 11.0546 12.769 10.7386 13.0329 10.4714C13.2965 10.2044 13.6063 9.99251 13.9721 9.83792C14.3354 9.68309 14.7365 9.60555 15.1808 9.60555C15.6705 9.60555 16.0995 9.69817 16.4678 9.8874C16.8334 10.0741 17.1354 10.3262 17.3715 10.6406C17.6081 10.9552 17.7753 11.3165 17.8794 11.7202C17.9835 12.1238 18.0191 12.5452 17.9905 12.9873L13.8097 12.9873C13.8097 13.4334 13.9623 13.8604 14.2029 14.0867L14.2034 14.0883ZM16.0289 11.1013C15.8413 10.897 15.5187 10.7846 15.1305 10.7846C14.8761 10.7846 14.666 10.8267 14.4985 10.9116C14.3337 10.996 14.1989 11.1006 14.0948 11.2257C13.9933 11.3504 13.9218 11.4852 13.8822 11.6268C13.8416 11.764 13.8165 11.891 13.808 12.001L16.3979 12.0008C16.3598 11.6021 16.2202 11.3077 16.0299 11.1008L16.029 11.1013L16.0289 11.1013ZM8.54044 10.7716C8.85234 10.7716 9.1112 10.6988 9.31417 10.552C9.51713 10.4075 9.61382 10.1681 9.61382 9.83861C9.61382 9.65693 9.58071 9.50421 9.51474 9.38685C9.44661 9.26973 9.35711 9.17711 9.24316 9.11254C9.13111 9.0456 9.00468 8.99989 8.8552 8.97515C8.71054 8.94806 8.55795 8.93557 8.40345 8.93557L6.75859 8.93557L6.75859 10.7707L8.54093 10.7707L8.54044 10.7716ZM8.63688 14.1154C8.81011 14.1154 8.97493 14.1003 9.12871 14.065C9.2861 14.0301 9.42597 13.978 9.54234 13.8984C9.65918 13.8208 9.75849 13.719 9.82903 13.5842C9.90053 13.4518 9.93316 13.2826 9.93316 13.0759C9.93316 12.6722 9.81607 12.3826 9.58553 12.2077C9.35496 12.0352 9.04785 11.9509 8.66711 11.9509L6.7581 11.9509L6.7581 14.1124L8.63688 14.1121L8.63688 14.1154L8.63688 14.1154Z" fill="black"/>
</g>
<defs>
<clipPath id="clip0_1248_775">
<rect width="24" height="24" fill="white"/>
</clipPath>
</defs>
</svg>
