<svg width="24" height="24" viewBox="0 0 24 24" fill="none" xmlns="http://www.w3.org/2000/svg">
<g clip-path="url(#clip0_1248_799)">
<path d="M12.0002 23.6255C18.4207 23.6255 23.6255 18.4207 23.6255 12.0002C23.6255 5.57979 18.4207 0.375 12.0002 0.375C5.57979 0.375 0.375 5.57979 0.375 12.0002C0.375 18.4207 5.57979 23.6255 12.0002 23.6255Z" fill="#EA4C89"/>
<path d="M12 0C8.8174 0 5.76516 1.26428 3.51472 3.51472C1.26428 5.76516 0 8.8174 0 12C0 15.1826 1.26428 18.2348 3.51472 20.4853C5.76516 22.7357 8.8174 24 12 24C18.612 24 24 18.625 24 12C24 5.37497 18.612 0 12 0ZM19.9262 5.53154C21.4034 7.33085 22.2209 9.58123 22.243 11.9091C21.9047 11.8443 18.5204 11.1539 15.1101 11.5847C15.029 11.4151 14.9665 11.2334 14.8887 11.0509C14.6802 10.5561 14.4458 10.0491 14.2121 9.56723C17.9874 8.03001 19.7063 5.81789 19.9262 5.53154ZM12 1.77003C14.5037 1.7685 16.921 2.68548 18.7938 4.34719C18.6112 4.60759 17.0627 6.67694 13.418 8.04381C12.2727 5.9628 10.9946 3.9577 9.59156 2.04097C10.3811 1.85731 11.1894 1.76638 12 1.77003ZM7.63983 2.73291C9.01315 4.63641 10.2818 6.61324 11.4403 8.65463C8.34603 9.46363 5.16291 9.88329 1.96471 9.90387C2.29441 8.35222 2.97814 6.89772 3.96255 5.65384C4.94697 4.40995 6.20545 3.41032 7.63983 2.73291ZM1.74407 12.013V11.7007C2.18698 11.7136 7.15879 11.7818 12.2734 10.2405C12.5727 10.8132 12.8461 11.3989 13.1065 11.9846C12.9759 12.0235 12.8331 12.0657 12.7009 12.1014C7.41675 13.8049 4.60515 18.466 4.37072 18.8562C2.67961 16.9781 1.7439 14.5403 1.74407 12.013ZM12 22.2559C9.7217 22.2598 7.50799 21.4991 5.71324 20.0957C5.89576 19.7185 7.9781 15.7096 13.757 13.6922C13.783 13.6792 13.796 13.6792 13.8219 13.6662C14.7977 16.1807 15.5311 18.7827 16.0122 21.4366C14.7449 21.9813 13.3794 22.2602 12 22.2559ZM17.7141 20.4989C17.6102 19.8743 17.0651 16.881 15.7226 13.1981C18.9373 12.6903 21.7489 13.5226 22.1002 13.641C21.8813 15.0247 21.3786 16.3482 20.6238 17.5284C19.869 18.7085 18.8784 19.7199 17.7141 20.4989Z" fill="#C32361"/>
</g>
<defs>
<clipPath id="clip0_1248_799">
<rect width="24" height="24" fill="white"/>
</clipPath>
</defs>
</svg>
