<svg width="24" height="24" viewBox="0 0 24 24" fill="none" xmlns="http://www.w3.org/2000/svg">
<g clip-path="url(#clip0_1248_806)">
<path d="M12 0.875C18.1442 0.875 23.1249 5.85581 23.125 12C23.125 18.1443 18.1443 23.125 12 23.125C5.85581 23.1249 0.875 18.1442 0.875 12C0.875124 5.85589 5.85589 0.875124 12 0.875Z" fill="#0A66C2" stroke="#075099"/>
<path fill-rule="evenodd" clip-rule="evenodd" d="M9.89577 9.73238H12.5656V11.1077H12.6034C12.9764 10.4407 13.8841 9.73238 15.2405 9.73238C18.0582 9.73238 18.5791 11.4859 18.5791 13.7672V18.591H15.7958V14.3035C15.7958 13.3219 15.7752 12.0584 14.3483 12.0584C12.9214 12.0584 12.6773 13.1259 12.6773 14.233V18.5996H9.89577V9.73238ZM8.3159 7.04711C8.3159 7.3334 8.23101 7.61326 8.07195 7.8513C7.9129 8.08934 7.68683 8.27487 7.42233 8.38443C7.15784 8.49398 6.86679 8.52265 6.58601 8.4668C6.30522 8.41095 6.0473 8.27308 5.84486 8.07065C5.64243 7.86821 5.50456 7.61029 5.44871 7.3295C5.39286 7.04872 5.42153 6.75767 5.53108 6.49318C5.64064 6.22868 5.82617 6.00261 6.06421 5.84356C6.30225 5.6845 6.58211 5.59961 6.8684 5.59961C7.25216 5.60006 7.62007 5.75271 7.89143 6.02408C8.1628 6.29544 8.31545 6.66335 8.3159 7.04711ZM5.42434 9.73238H8.3159V18.591H5.42434L5.42434 9.73238Z" fill="white"/>
</g>
<defs>
<clipPath id="clip0_1248_806">
<rect width="24" height="24" fill="white"/>
</clipPath>
</defs>
</svg>
