<svg width="16" height="16" viewBox="0 0 16 16" fill="none" xmlns="http://www.w3.org/2000/svg">
<g clip-path="url(#clip0_1248_806)">
<path d="M8 0.75C12.0041 0.75 15.2499 3.99592 15.25 8C15.25 12.0041 12.0041 15.25 8 15.25C3.99592 15.2499 0.75 12.0041 0.75 8C0.750082 3.99597 3.99597 0.750082 8 0.75Z" fill="#0A66C2" stroke="#075099"/>
<path fill-rule="evenodd" clip-rule="evenodd" d="M6.48922 6.62107H8.11243V7.45724H8.13542C8.36223 7.0517 8.9141 6.62107 9.73877 6.62107C11.4519 6.62107 11.7686 7.68718 11.7686 9.07417V12.007H10.0764V9.40027C10.0764 8.80346 10.0638 8.03523 9.1963 8.03523C8.32878 8.03523 8.18037 8.68431 8.18037 9.35742V12.0122H6.48922V6.62107ZM5.52868 4.98846C5.52868 5.16252 5.47707 5.33267 5.38036 5.4774C5.28366 5.62212 5.14621 5.73492 4.9854 5.80153C4.82459 5.86814 4.64764 5.88557 4.47693 5.85161C4.30621 5.81766 4.1494 5.73384 4.02632 5.61076C3.90324 5.48768 3.81942 5.33087 3.78547 5.16015C3.75151 4.98944 3.76894 4.81249 3.83555 4.65168C3.90216 4.49087 4.01496 4.35342 4.15968 4.25672C4.30441 4.16001 4.47456 4.1084 4.64862 4.1084C4.88194 4.10868 5.10563 4.20148 5.27061 4.36647C5.43559 4.53145 5.5284 4.75514 5.52868 4.98846ZM3.77065 6.62107H5.52868V12.007H3.77065L3.77065 6.62107Z" fill="white"/>
</g>
<defs>
<clipPath id="clip0_1248_806">
<rect width="16" height="16" fill="white"/>
</clipPath>
</defs>
</svg>
